<?xml version="1.0" encoding="UTF-8" standalone="no"?>
<!-- Created with Inkscape (http://www.inkscape.org/) -->

<svg
   version="1.1"
   id="svg2"
   xml:space="preserve"
   width="800"
   height="150"
   viewBox="0 0 800 150"
   sodipodi:docname="emprende logo.svg"
   inkscape:version="1.2-dev (1:1.0+devel+202106150022+2bad7a816c)"
   inkscape:export-filename="/home/camilo/Escritorio/EmprendeSite/assets/images/logo-white.png"
   inkscape:export-xdpi="150"
   inkscape:export-ydpi="150"
   xmlns:inkscape="http://www.inkscape.org/namespaces/inkscape"
   xmlns:sodipodi="http://sodipodi.sourceforge.net/DTD/sodipodi-0.dtd"
   xmlns="http://www.w3.org/2000/svg"
   xmlns:svg="http://www.w3.org/2000/svg"><defs
     id="defs6"><clipPath
       clipPathUnits="userSpaceOnUse"
       id="clipPath26"><path
         d="M 0,500 H 750 V 0 H 0 Z"
         id="path24" /></clipPath><clipPath
       clipPathUnits="userSpaceOnUse"
       id="clipPath122"><path
         d="M 0,500 H 750 V 0 H 0 Z"
         id="path120" /></clipPath><clipPath
       clipPathUnits="userSpaceOnUse"
       id="clipPath162"><path
         d="M 0,500 H 750 V 0 H 0 Z"
         id="path160" /></clipPath><clipPath
       clipPathUnits="userSpaceOnUse"
       id="clipPath190"><path
         d="M 0,500 H 750 V 0 H 0 Z"
         id="path188" /></clipPath><clipPath
       clipPathUnits="userSpaceOnUse"
       id="clipPath226"><path
         d="M 0,500 H 750 V 0 H 0 Z"
         id="path224" /></clipPath><clipPath
       clipPathUnits="userSpaceOnUse"
       id="clipPath254"><path
         d="M 0,500 H 750 V 0 H 0 Z"
         id="path252" /></clipPath></defs><sodipodi:namedview
     id="namedview4"
     pagecolor="#505050"
     bordercolor="#eeeeee"
     borderopacity="1"
     inkscape:pageshadow="0"
     inkscape:pageopacity="0"
     inkscape:pagecheckerboard="0"
     showgrid="false"
     showguides="true"
     inkscape:guide-bbox="true"
     inkscape:zoom="0.45254834"
     inkscape:cx="195.55922"
     inkscape:cy="-100.54175"
     inkscape:window-width="1366"
     inkscape:window-height="704"
     inkscape:window-x="0"
     inkscape:window-y="0"
     inkscape:window-maximized="1"
     inkscape:current-layer="g8"><sodipodi:guide
       position="94.269276,431.55664"
       orientation="0,-1"
       id="guide7641" /><sodipodi:guide
       position="94.269276,431.55664"
       orientation="1,0"
       id="guide7643" /><sodipodi:guide
       position="94.269276,286.53409"
       orientation="0,-1"
       id="guide7645" /><sodipodi:guide
       position="878.11632,345.26541"
       orientation="0,-1"
       id="guide30443" /><sodipodi:guide
       position="878.11632,386.83293"
       orientation="1,0"
       id="guide154240" /><sodipodi:guide
       position="231.20568,345.26541"
       orientation="1,0"
       id="guide154242" /><inkscape:grid
       type="xygrid"
       id="grid227331" /></sodipodi:namedview><g
     id="g8"
     inkscape:groupmode="layer"
     inkscape:label="5104797"
     transform="matrix(1.3333333,0,0,-1.3333333,0,666.66667)"><g
       id="g20"
       transform="matrix(1.3880651,0,0,1.3880651,-165.92306,-85.23545)"><g
         id="g22"
         clip-path="url(#clipPath26)"><g
           id="g28"
           transform="translate(133.4396,414.2612)"><path
             d="m 0,0 c 0,3.287 -2.665,5.952 -5.952,5.952 -3.287,0 -5.951,-2.665 -5.951,-5.952 0,-3.287 2.664,-5.952 5.951,-5.952 C -2.665,-5.952 0,-3.287 0,0"
             style="fill:#ffc20e;fill-opacity:1;fill-rule:nonzero;stroke:none"
             id="path30" /></g><g
           id="g32"
           transform="translate(150.3346,414.2612)"><path
             d="m 0,0 c 0,3.287 -2.665,5.952 -5.952,5.952 -3.287,0 -5.951,-2.665 -5.951,-5.952 0,-3.287 2.664,-5.952 5.951,-5.952 C -2.665,-5.952 0,-3.287 0,0"
             style="fill:#ffc20e;fill-opacity:1;fill-rule:nonzero;stroke:none"
             id="path34" /></g><g
           id="g36"
           transform="translate(167.2292,414.2612)"
           style="fill:#ffc20e;fill-opacity:1"><path
             d="m 0,0 c 0,3.287 -2.665,5.952 -5.951,5.952 -3.287,0 -5.952,-2.665 -5.952,-5.952 0,-3.287 2.665,-5.952 5.952,-5.952 C -2.665,-5.952 0,-3.287 0,0"
             style="fill:#ffc20e;fill-opacity:1;fill-rule:nonzero;stroke:none"
             id="path38" /></g><g
           id="g40"
           transform="translate(184.1242,414.2612)"
           style="fill:#ffc20e;fill-opacity:1"><path
             d="m 0,0 c 0,3.287 -2.665,5.952 -5.952,5.952 -3.286,0 -5.951,-2.665 -5.951,-5.952 0,-3.287 2.665,-5.952 5.951,-5.952 C -2.665,-5.952 0,-3.287 0,0"
             style="fill:#ffc20e;fill-opacity:1;fill-rule:nonzero;stroke:none"
             id="path42" /></g><g
           id="g44"
           transform="translate(133.4396,397.75)"
           style="fill:#ffc20e;fill-opacity:1"><path
             d="m 0,0 c 0,3.287 -2.665,5.952 -5.952,5.952 -3.287,0 -5.951,-2.665 -5.951,-5.952 0,-3.287 2.664,-5.951 5.951,-5.951 C -2.665,-5.951 0,-3.287 0,0"
             style="fill:#ffc20e;fill-opacity:1;fill-rule:nonzero;stroke:none"
             id="path46" /></g><g
           id="g48"
           transform="translate(150.3346,397.75)"
           style="fill:#47b872;fill-opacity:1"><path
             d="m 0,0 c 0,3.287 -2.665,5.952 -5.952,5.952 -3.287,0 -5.951,-2.665 -5.951,-5.952 0,-3.287 2.664,-5.951 5.951,-5.951 C -2.665,-5.951 0,-3.287 0,0"
             style="fill:#47b872;fill-opacity:1;fill-rule:nonzero;stroke:none"
             id="path50" /></g><g
           id="g52"
           transform="translate(167.2292,397.75)"
           style="fill:#47b872;fill-opacity:1"><path
             d="m 0,0 c 0,3.287 -2.665,5.952 -5.951,5.952 -3.287,0 -5.952,-2.665 -5.952,-5.952 0,-3.287 2.665,-5.951 5.952,-5.951 C -2.665,-5.951 0,-3.287 0,0"
             style="fill:#47b872;fill-opacity:1;fill-rule:nonzero;stroke:none"
             id="path54" /></g><g
           id="g56"
           transform="translate(184.1242,397.75)"
           style="fill:#47b872;fill-opacity:1"><path
             d="m 0,0 c 0,3.287 -2.665,5.952 -5.952,5.952 -3.286,0 -5.951,-2.665 -5.951,-5.952 0,-3.287 2.665,-5.951 5.951,-5.951 C -2.665,-5.951 0,-3.287 0,0"
             style="fill:#47b872;fill-opacity:1;fill-rule:nonzero;stroke:none"
             id="path58" /></g><g
           id="g60"
           transform="translate(133.4396,381.2393)"
           style="fill:#ffc20e;fill-opacity:1"><path
             d="m 0,0 c 0,3.287 -2.665,5.952 -5.952,5.952 -3.287,0 -5.951,-2.665 -5.951,-5.952 0,-3.287 2.664,-5.952 5.951,-5.952 C -2.665,-5.952 0,-3.287 0,0"
             style="fill:#ffc20e;fill-opacity:1;fill-rule:nonzero;stroke:none"
             id="path62" /></g><g
           id="g64"
           transform="translate(150.3346,381.2393)"
           style="fill:#ffc20e;fill-opacity:1"><path
             d="m 0,0 c 0,3.287 -2.665,5.952 -5.952,5.952 -3.287,0 -5.951,-2.665 -5.951,-5.952 0,-3.287 2.664,-5.952 5.951,-5.952 C -2.665,-5.952 0,-3.287 0,0"
             style="fill:#ffc20e;fill-opacity:1;fill-rule:nonzero;stroke:none"
             id="path66" /></g><g
           id="g68"
           transform="translate(167.2292,381.2393)"
           style="fill:#ffc20e;fill-opacity:1"><path
             d="m 0,0 c 0,3.287 -2.665,5.952 -5.951,5.952 -3.287,0 -5.952,-2.665 -5.952,-5.952 0,-3.287 2.665,-5.952 5.952,-5.952 C -2.665,-5.952 0,-3.287 0,0"
             style="fill:#ffc20e;fill-opacity:1;fill-rule:nonzero;stroke:none"
             id="path70" /></g><g
           id="g72"
           transform="translate(184.1242,381.2393)"
           style="fill:#47b872;fill-opacity:1"><path
             d="m 0,0 c 0,3.287 -2.665,5.952 -5.952,5.952 -3.286,0 -5.951,-2.665 -5.951,-5.952 0,-3.287 2.665,-5.952 5.951,-5.952 C -2.665,-5.952 0,-3.287 0,0"
             style="fill:#47b872;fill-opacity:1;fill-rule:nonzero;stroke:none"
             id="path74" /></g><g
           id="g76"
           transform="translate(133.4396,364.728)"
           style="fill:#ffc20e;fill-opacity:1"><path
             d="m 0,0 c 0,3.287 -2.665,5.952 -5.952,5.952 -3.287,0 -5.951,-2.665 -5.951,-5.952 0,-3.287 2.664,-5.952 5.951,-5.952 C -2.665,-5.952 0,-3.287 0,0"
             style="fill:#ffc20e;fill-opacity:1;fill-rule:nonzero;stroke:none"
             id="path78" /></g><g
           id="g80"
           transform="translate(150.3346,364.728)"
           style="fill:#47b872;fill-opacity:1"><path
             d="m 0,0 c 0,3.287 -2.665,5.952 -5.952,5.952 -3.287,0 -5.951,-2.665 -5.951,-5.952 0,-3.287 2.664,-5.952 5.951,-5.952 C -2.665,-5.952 0,-3.287 0,0"
             style="fill:#47b872;fill-opacity:1;fill-rule:nonzero;stroke:none"
             id="path82" /></g><g
           id="g84"
           transform="translate(167.2292,364.728)"
           style="fill:#47b872;fill-opacity:1"><path
             d="m 0,0 c 0,3.287 -2.665,5.952 -5.951,5.952 -3.287,0 -5.952,-2.665 -5.952,-5.952 0,-3.287 2.665,-5.952 5.952,-5.952 C -2.665,-5.952 0,-3.287 0,0"
             style="fill:#47b872;fill-opacity:1;fill-rule:nonzero;stroke:none"
             id="path86" /></g><g
           id="g88"
           transform="translate(184.1242,364.728)"
           style="fill:#47b872;fill-opacity:1"><path
             d="m 0,0 c 0,3.287 -2.665,5.952 -5.952,5.952 -3.286,0 -5.951,-2.665 -5.951,-5.952 0,-3.287 2.665,-5.952 5.951,-5.952 C -2.665,-5.952 0,-3.287 0,0"
             style="fill:#47b872;fill-opacity:1;fill-rule:nonzero;stroke:none"
             id="path90" /></g><g
           id="g92"
           transform="translate(133.4396,348.2173)"
           style="fill:#ffc20e;fill-opacity:1"><path
             d="m 0,0 c 0,3.287 -2.665,5.952 -5.952,5.952 -3.287,0 -5.951,-2.665 -5.951,-5.952 0,-3.287 2.664,-5.952 5.951,-5.952 C -2.665,-5.952 0,-3.287 0,0"
             style="fill:#ffc20e;fill-opacity:1;fill-rule:nonzero;stroke:none"
             id="path94" /></g><g
           id="g96"
           transform="translate(150.3346,348.2173)"
           style="fill:#ffc20e;fill-opacity:1"><path
             d="m 0,0 c 0,3.287 -2.665,5.952 -5.952,5.952 -3.287,0 -5.951,-2.665 -5.951,-5.952 0,-3.287 2.664,-5.952 5.951,-5.952 C -2.665,-5.952 0,-3.287 0,0"
             style="fill:#ffc20e;fill-opacity:1;fill-rule:nonzero;stroke:none"
             id="path98" /></g><g
           id="g100"
           transform="translate(167.2292,348.2173)"
           style="fill:#ffc20e;fill-opacity:1"><path
             d="m 0,0 c 0,3.287 -2.665,5.952 -5.951,5.952 -3.287,0 -5.952,-2.665 -5.952,-5.952 0,-3.287 2.665,-5.952 5.952,-5.952 C -2.665,-5.952 0,-3.287 0,0"
             style="fill:#ffc20e;fill-opacity:1;fill-rule:nonzero;stroke:none"
             id="path102" /></g><g
           id="g104"
           transform="translate(184.1242,348.2173)"
           style="fill:#ffc20e;fill-opacity:1"><path
             d="m 0,0 c 0,3.287 -2.665,5.952 -5.952,5.952 -3.286,0 -5.951,-2.665 -5.951,-5.952 0,-3.287 2.665,-5.952 5.951,-5.952 C -2.665,-5.952 0,-3.287 0,0"
             style="fill:#ffc20e;fill-opacity:1;fill-rule:nonzero;stroke:none"
             id="path106" /></g></g></g><text
       xml:space="preserve"
       style="font-size:51.005px;line-height:1.25;font-family:Leorio;-inkscape-font-specification:Leorio;letter-spacing:0px;word-spacing:0px;fill:#47b872;fill-opacity:1;stroke-width:1.27511"
       x="105.27197"
       y="-441.05566"
       id="text2687"
       transform="scale(0.96585146,-1.0353559)"><tspan
         id="tspan2685"
         style="font-style:normal;font-variant:normal;font-weight:bold;font-stretch:normal;font-family:Quicksand;-inkscape-font-specification:'Quicksand Bold';fill:#47b872;fill-opacity:1;stroke-width:1.27511"
         x="105.27197"
         y="-441.05566"
         sodipodi:role="line">Emprende en la Web</tspan></text><text
       xml:space="preserve"
       style="font-size:36.8332px;line-height:1.25;font-family:Leorio;-inkscape-font-specification:Leorio;word-spacing:0px;fill:#ffc20e;fill-opacity:1;stroke-width:0.920831"
       x="108.18088"
       y="-387.52878"
       id="text10505"
       transform="scale(0.96672336,-1.0344221)"><tspan
         sodipodi:role="line"
         id="tspan10503"
         style="font-style:normal;font-variant:normal;font-weight:normal;font-stretch:normal;font-family:Quicksand;-inkscape-font-specification:Quicksand;fill:#ffc20e;fill-opacity:1;stroke-width:0.920831"
         x="108.18088"
         y="-387.52878">Apps y webs para emprender</tspan></text><path
       style="fill:#ffc20e;fill-opacity:1;stroke:#ecb533;stroke-width:1.875;stroke-linecap:butt;stroke-linejoin:miter;stroke-miterlimit:4;stroke-dasharray:none;stroke-opacity:1"
       d="m 105.01516,436.53816 h 485.183"
       id="path154277" /><path
       style="fill:#47b872;fill-opacity:1;stroke:#47b872;stroke-width:1.875;stroke-linecap:butt;stroke-linejoin:miter;stroke-miterlimit:4;stroke-dasharray:none;stroke-opacity:1"
       d="m 105.01139,434.6813 h 485.183"
       id="path154277-1" /></g></svg>
